<svg xmlns="http://www.w3.org/2000/svg" viewBox="0 0 1200 750" role="img" aria-labelledby="title desc">
  <title id="title">Durafrp preview</title>
  <desc id="desc">Industrial lead generation dashboard with product cards and conversion analytics.</desc>
  <defs>
    <linearGradient id="bg" x1="0" y1="0" x2="1" y2="1">
      <stop offset="0%" stop-color="#0a2f6b"/>
      <stop offset="55%" stop-color="#0d63c9"/>
      <stop offset="100%" stop-color="#d7ecff"/>
    </linearGradient>
    <linearGradient id="card" x1="0" y1="0" x2="1" y2="1">
      <stop offset="0%" stop-color="#ffffff"/>
      <stop offset="100%" stop-color="#eff6ff"/>
    </linearGradient>
  </defs>
  <rect width="1200" height="750" rx="48" fill="url(#bg)"/>
  <circle cx="1030" cy="120" r="180" fill="#ffffff" opacity="0.12"/>
  <circle cx="180" cy="620" r="220" fill="#9bd0ff" opacity="0.18"/>
  <rect x="90" y="90" width="1020" height="570" rx="36" fill="#ffffff" opacity="0.14"/>
  <rect x="120" y="130" width="960" height="510" rx="28" fill="#f8fbff"/>
  <rect x="160" y="170" width="340" height="54" rx="16" fill="#0d63c9"/>
  <rect x="160" y="248" width="280" height="24" rx="12" fill="#c8dcf4"/>
  <rect x="160" y="286" width="220" height="24" rx="12" fill="#c8dcf4"/>
  <rect x="160" y="340" width="250" height="180" rx="24" fill="url(#card)" stroke="#d9e5f5"/>
  <rect x="450" y="340" width="270" height="180" rx="24" fill="url(#card)" stroke="#d9e5f5"/>
  <rect x="740" y="340" width="300" height="180" rx="24" fill="url(#card)" stroke="#d9e5f5"/>
  <rect x="184" y="368" width="110" height="16" rx="8" fill="#d7e5f8"/>
  <rect x="184" y="400" width="170" height="18" rx="9" fill="#0d63c9"/>
  <rect x="184" y="436" width="140" height="18" rx="9" fill="#7cb0ef"/>
  <rect x="184" y="472" width="190" height="18" rx="9" fill="#d7e5f8"/>
  <rect x="474" y="368" width="100" height="16" rx="8" fill="#d7e5f8"/>
  <rect x="474" y="402" width="180" height="18" rx="9" fill="#0d63c9"/>
  <rect x="474" y="440" width="130" height="18" rx="9" fill="#7cb0ef"/>
  <rect x="474" y="478" width="210" height="18" rx="9" fill="#d7e5f8"/>
  <rect x="764" y="368" width="130" height="16" rx="8" fill="#d7e5f8"/>
  <rect x="764" y="404" width="220" height="100" rx="18" fill="#eef5fd"/>
  <path d="M790 472 L840 448 L878 460 L938 418 L982 434" fill="none" stroke="#0d63c9" stroke-width="12" stroke-linecap="round" stroke-linejoin="round"/>
  <circle cx="790" cy="472" r="8" fill="#0d63c9"/>
  <circle cx="840" cy="448" r="8" fill="#0d63c9"/>
  <circle cx="878" cy="460" r="8" fill="#0d63c9"/>
  <circle cx="938" cy="418" r="8" fill="#0d63c9"/>
  <circle cx="982" cy="434" r="8" fill="#0d63c9"/>
  <text x="160" y="612" fill="#0a2f6b" font-family="Manrope, Arial, sans-serif" font-size="42" font-weight="800">DURAFRP</text>
  <text x="160" y="650" fill="#1f4f8f" font-family="Manrope, Arial, sans-serif" font-size="20" font-weight="600">Industrial Lead Generation Platform</text>
</svg>